<svg width="862" height="358" viewBox="0 0 862 358" fill="none" xmlns="http://www.w3.org/2000/svg">
<path d="M769.081 263.759L795.196 70.5099H778.221L752.106 248.09H733.844L731.428 263.759H769.081Z" fill="#CAAA00"/>
<path d="M245.479 263.759H731.428L733.844 248.09H133.658L137.818 263.759H245.479Z" fill="#CAAA00"/>
<path d="M170.086 281.603L292.486 336.881L258.735 284.38L170.086 281.603Z" fill="#DEBC08"/>
<path d="M170.086 281.603L258.735 284.38L245.479 263.759H137.818L138.805 267.477L170.086 281.603Z" fill="#DEBC08"/>
<path d="M761.228 70.5099H86.5035L133.658 248.09H733.844L761.228 70.5099Z" fill="#FFD600"/>
<path d="M752.106 248.09L778.221 70.5099H761.228L733.844 248.09H752.106Z" fill="#FFD600"/>
<path d="M778.757 270.614L844.557 291.541L785.248 339.356L778.757 270.614Z" fill="black"/>
<path d="M781.087 261.272L793.237 227.892L816.349 256.983L781.087 261.272Z" fill="black"/>
<path d="M49.2391 3.89633L79.2881 69.44L7.50113 62.6914L49.2391 3.89633Z" fill="black"/>
<path d="M91.3483 58.8387L91.1482 21.2755L123.97 40.2145L91.3483 58.8387Z" fill="black"/>
<path d="M32.4645 87.1803L67.8698 80.7851L56.3067 114.124L32.4645 87.1803Z" fill="black"/>
<path d="M728.148 285.648L759.999 273.543L753.368 308.561L728.148 285.648Z" fill="black"/>
<mask id="path-8-outside-1_4_134" maskUnits="userSpaceOnUse" x="128.963" y="107.51" width="626" height="121" fill="black">
<rect fill="white" x="128.963" y="107.51" width="626" height="121"/>
<path d="M202.424 225.059L189.023 209.004C185.315 209.931 181.522 210.395 177.645 210.395C169.386 210.395 161.801 208.456 154.89 204.58C147.979 200.703 142.501 195.351 138.455 188.524C134.41 181.613 132.387 173.817 132.387 165.137C132.387 156.54 134.41 148.829 138.455 142.002C142.501 135.091 147.979 129.697 154.89 125.82C161.801 121.943 169.386 120.005 177.645 120.005C185.989 120.005 193.574 121.943 200.401 125.82C207.312 129.697 212.748 135.091 216.709 142.002C220.754 148.829 222.777 156.54 222.777 165.137C222.777 172.975 221.092 180.138 217.72 186.628C214.433 193.033 209.925 198.259 204.194 202.304L224.421 225.059H202.424ZM150.592 165.137C150.592 171.036 151.729 176.219 154.005 180.686C156.281 185.153 159.441 188.609 163.486 191.053C167.616 193.412 172.336 194.592 177.645 194.592C182.955 194.592 187.633 193.412 191.678 191.053C195.723 188.609 198.884 185.153 201.159 180.686C203.435 176.219 204.573 171.036 204.573 165.137C204.573 159.237 203.435 154.096 201.159 149.714C198.884 145.247 195.723 141.833 191.678 139.474C187.633 137.114 182.955 135.934 177.645 135.934C172.336 135.934 167.616 137.114 163.486 139.474C159.441 141.833 156.281 145.247 154.005 149.714C151.729 154.096 150.592 159.237 150.592 165.137ZM302.309 139.474V209.51H284.484V200.661C282.208 203.695 279.216 206.097 275.508 207.866C271.884 209.552 267.923 210.395 263.624 210.395C258.146 210.395 253.3 209.257 249.086 206.982C244.872 204.622 241.543 201.208 239.099 196.742C236.739 192.19 235.559 186.797 235.559 180.56V139.474H253.258V178.031C253.258 183.594 254.649 187.892 257.43 190.926C260.211 193.876 264.004 195.351 268.808 195.351C273.696 195.351 277.531 193.876 280.312 190.926C283.093 187.892 284.484 183.594 284.484 178.031V139.474H302.309ZM328.747 131.13C325.629 131.13 323.016 130.161 320.909 128.222C318.886 126.2 317.875 123.713 317.875 120.763C317.875 117.814 318.886 115.37 320.909 113.431C323.016 111.408 325.629 110.397 328.747 110.397C331.866 110.397 334.436 111.408 336.459 113.431C338.566 115.37 339.619 117.814 339.619 120.763C339.619 123.713 338.566 126.2 336.459 128.222C334.436 130.161 331.866 131.13 328.747 131.13ZM337.47 139.474V209.51H319.771V139.474H337.47ZM371.138 194.972H402.364V209.51H351.038V195.224L381.631 154.012H351.164V139.474H401.985V153.759L371.138 194.972ZM506.24 121.269V135.555H482.726V209.51H465.027V135.555H441.513V121.269H506.24ZM528.129 131.13C525.011 131.13 522.398 130.161 520.291 128.222C518.269 126.2 517.257 123.713 517.257 120.763C517.257 117.814 518.269 115.37 520.291 113.431C522.398 111.408 525.011 110.397 528.129 110.397C531.248 110.397 533.818 111.408 535.841 113.431C537.948 115.37 539.001 117.814 539.001 120.763C539.001 123.713 537.948 126.2 535.841 128.222C533.818 130.161 531.248 131.13 528.129 131.13ZM536.852 139.474V209.51H519.154V139.474H536.852ZM641.315 138.462C649.912 138.462 656.823 141.117 662.048 146.427C667.358 151.652 670.012 158.984 670.012 168.424V209.51H652.314V170.826C652.314 165.347 650.923 161.176 648.142 158.31C645.361 155.36 641.568 153.885 636.764 153.885C631.96 153.885 628.125 155.36 625.26 158.31C622.479 161.176 621.088 165.347 621.088 170.826V209.51H603.389V170.826C603.389 165.347 601.999 161.176 599.217 158.31C596.436 155.36 592.644 153.885 587.84 153.885C582.952 153.885 579.075 155.36 576.209 158.31C573.428 161.176 572.037 165.347 572.037 170.826V209.51H554.339V139.474H572.037V147.944C574.313 144.994 577.221 142.676 580.76 140.991C584.384 139.305 588.345 138.462 592.644 138.462C598.122 138.462 603.01 139.642 607.308 142.002C611.607 144.277 614.936 147.564 617.295 151.863C619.571 147.817 622.858 144.572 627.156 142.128C631.539 139.684 636.258 138.462 641.315 138.462ZM751.913 172.975C751.913 175.503 751.745 177.779 751.408 179.801H700.208C700.629 184.858 702.399 188.819 705.517 191.685C708.636 194.55 712.47 195.983 717.022 195.983C723.595 195.983 728.273 193.16 731.054 187.513H750.143C748.121 194.255 744.244 199.818 738.513 204.2C732.782 208.499 725.744 210.648 717.401 210.648C710.658 210.648 704.59 209.173 699.196 206.223C693.887 203.189 689.715 198.933 686.681 193.455C683.731 187.976 682.256 181.655 682.256 174.492C682.256 167.244 683.731 160.881 686.681 155.402C689.631 149.924 693.76 145.71 699.07 142.76C704.38 139.811 710.49 138.336 717.401 138.336C724.059 138.336 730.001 139.769 735.226 142.634C740.536 145.5 744.623 149.587 747.489 154.897C750.438 160.122 751.913 166.148 751.913 172.975ZM733.582 167.918C733.498 163.367 731.855 159.743 728.652 157.046C725.449 154.265 721.53 152.874 716.895 152.874C712.513 152.874 708.804 154.222 705.77 156.919C702.82 159.532 701.008 163.198 700.334 167.918H733.582Z"/>
</mask>
<path d="M202.424 225.059L189.023 209.004C185.315 209.931 181.522 210.395 177.645 210.395C169.386 210.395 161.801 208.456 154.89 204.58C147.979 200.703 142.501 195.351 138.455 188.524C134.41 181.613 132.387 173.817 132.387 165.137C132.387 156.54 134.41 148.829 138.455 142.002C142.501 135.091 147.979 129.697 154.89 125.82C161.801 121.943 169.386 120.005 177.645 120.005C185.989 120.005 193.574 121.943 200.401 125.82C207.312 129.697 212.748 135.091 216.709 142.002C220.754 148.829 222.777 156.54 222.777 165.137C222.777 172.975 221.092 180.138 217.72 186.628C214.433 193.033 209.925 198.259 204.194 202.304L224.421 225.059H202.424ZM150.592 165.137C150.592 171.036 151.729 176.219 154.005 180.686C156.281 185.153 159.441 188.609 163.486 191.053C167.616 193.412 172.336 194.592 177.645 194.592C182.955 194.592 187.633 193.412 191.678 191.053C195.723 188.609 198.884 185.153 201.159 180.686C203.435 176.219 204.573 171.036 204.573 165.137C204.573 159.237 203.435 154.096 201.159 149.714C198.884 145.247 195.723 141.833 191.678 139.474C187.633 137.114 182.955 135.934 177.645 135.934C172.336 135.934 167.616 137.114 163.486 139.474C159.441 141.833 156.281 145.247 154.005 149.714C151.729 154.096 150.592 159.237 150.592 165.137ZM302.309 139.474V209.51H284.484V200.661C282.208 203.695 279.216 206.097 275.508 207.866C271.884 209.552 267.923 210.395 263.624 210.395C258.146 210.395 253.3 209.257 249.086 206.982C244.872 204.622 241.543 201.208 239.099 196.742C236.739 192.19 235.559 186.797 235.559 180.56V139.474H253.258V178.031C253.258 183.594 254.649 187.892 257.43 190.926C260.211 193.876 264.004 195.351 268.808 195.351C273.696 195.351 277.531 193.876 280.312 190.926C283.093 187.892 284.484 183.594 284.484 178.031V139.474H302.309ZM328.747 131.13C325.629 131.13 323.016 130.161 320.909 128.222C318.886 126.2 317.875 123.713 317.875 120.763C317.875 117.814 318.886 115.37 320.909 113.431C323.016 111.408 325.629 110.397 328.747 110.397C331.866 110.397 334.436 111.408 336.459 113.431C338.566 115.37 339.619 117.814 339.619 120.763C339.619 123.713 338.566 126.2 336.459 128.222C334.436 130.161 331.866 131.13 328.747 131.13ZM337.47 139.474V209.51H319.771V139.474H337.47ZM371.138 194.972H402.364V209.51H351.038V195.224L381.631 154.012H351.164V139.474H401.985V153.759L371.138 194.972ZM506.24 121.269V135.555H482.726V209.51H465.027V135.555H441.513V121.269H506.24ZM528.129 131.13C525.011 131.13 522.398 130.161 520.291 128.222C518.269 126.2 517.257 123.713 517.257 120.763C517.257 117.814 518.269 115.37 520.291 113.431C522.398 111.408 525.011 110.397 528.129 110.397C531.248 110.397 533.818 111.408 535.841 113.431C537.948 115.37 539.001 117.814 539.001 120.763C539.001 123.713 537.948 126.2 535.841 128.222C533.818 130.161 531.248 131.13 528.129 131.13ZM536.852 139.474V209.51H519.154V139.474H536.852ZM641.315 138.462C649.912 138.462 656.823 141.117 662.048 146.427C667.358 151.652 670.012 158.984 670.012 168.424V209.51H652.314V170.826C652.314 165.347 650.923 161.176 648.142 158.31C645.361 155.36 641.568 153.885 636.764 153.885C631.96 153.885 628.125 155.36 625.26 158.31C622.479 161.176 621.088 165.347 621.088 170.826V209.51H603.389V170.826C603.389 165.347 601.999 161.176 599.217 158.31C596.436 155.36 592.644 153.885 587.84 153.885C582.952 153.885 579.075 155.36 576.209 158.31C573.428 161.176 572.037 165.347 572.037 170.826V209.51H554.339V139.474H572.037V147.944C574.313 144.994 577.221 142.676 580.76 140.991C584.384 139.305 588.345 138.462 592.644 138.462C598.122 138.462 603.01 139.642 607.308 142.002C611.607 144.277 614.936 147.564 617.295 151.863C619.571 147.817 622.858 144.572 627.156 142.128C631.539 139.684 636.258 138.462 641.315 138.462ZM751.913 172.975C751.913 175.503 751.745 177.779 751.408 179.801H700.208C700.629 184.858 702.399 188.819 705.517 191.685C708.636 194.55 712.47 195.983 717.022 195.983C723.595 195.983 728.273 193.16 731.054 187.513H750.143C748.121 194.255 744.244 199.818 738.513 204.2C732.782 208.499 725.744 210.648 717.401 210.648C710.658 210.648 704.59 209.173 699.196 206.223C693.887 203.189 689.715 198.933 686.681 193.455C683.731 187.976 682.256 181.655 682.256 174.492C682.256 167.244 683.731 160.881 686.681 155.402C689.631 149.924 693.76 145.71 699.07 142.76C704.38 139.811 710.49 138.336 717.401 138.336C724.059 138.336 730.001 139.769 735.226 142.634C740.536 145.5 744.623 149.587 747.489 154.897C750.438 160.122 751.913 166.148 751.913 172.975ZM733.582 167.918C733.498 163.367 731.855 159.743 728.652 157.046C725.449 154.265 721.53 152.874 716.895 152.874C712.513 152.874 708.804 154.222 705.77 156.919C702.82 159.532 701.008 163.198 700.334 167.918H733.582Z" fill="black"/>
<path d="M202.424 225.059L189.023 209.004C185.315 209.931 181.522 210.395 177.645 210.395C169.386 210.395 161.801 208.456 154.89 204.58C147.979 200.703 142.501 195.351 138.455 188.524C134.41 181.613 132.387 173.817 132.387 165.137C132.387 156.54 134.41 148.829 138.455 142.002C142.501 135.091 147.979 129.697 154.89 125.82C161.801 121.943 169.386 120.005 177.645 120.005C185.989 120.005 193.574 121.943 200.401 125.82C207.312 129.697 212.748 135.091 216.709 142.002C220.754 148.829 222.777 156.54 222.777 165.137C222.777 172.975 221.092 180.138 217.72 186.628C214.433 193.033 209.925 198.259 204.194 202.304L224.421 225.059H202.424ZM150.592 165.137C150.592 171.036 151.729 176.219 154.005 180.686C156.281 185.153 159.441 188.609 163.486 191.053C167.616 193.412 172.336 194.592 177.645 194.592C182.955 194.592 187.633 193.412 191.678 191.053C195.723 188.609 198.884 185.153 201.159 180.686C203.435 176.219 204.573 171.036 204.573 165.137C204.573 159.237 203.435 154.096 201.159 149.714C198.884 145.247 195.723 141.833 191.678 139.474C187.633 137.114 182.955 135.934 177.645 135.934C172.336 135.934 167.616 137.114 163.486 139.474C159.441 141.833 156.281 145.247 154.005 149.714C151.729 154.096 150.592 159.237 150.592 165.137ZM302.309 139.474V209.51H284.484V200.661C282.208 203.695 279.216 206.097 275.508 207.866C271.884 209.552 267.923 210.395 263.624 210.395C258.146 210.395 253.3 209.257 249.086 206.982C244.872 204.622 241.543 201.208 239.099 196.742C236.739 192.19 235.559 186.797 235.559 180.56V139.474H253.258V178.031C253.258 183.594 254.649 187.892 257.43 190.926C260.211 193.876 264.004 195.351 268.808 195.351C273.696 195.351 277.531 193.876 280.312 190.926C283.093 187.892 284.484 183.594 284.484 178.031V139.474H302.309ZM328.747 131.13C325.629 131.13 323.016 130.161 320.909 128.222C318.886 126.2 317.875 123.713 317.875 120.763C317.875 117.814 318.886 115.37 320.909 113.431C323.016 111.408 325.629 110.397 328.747 110.397C331.866 110.397 334.436 111.408 336.459 113.431C338.566 115.37 339.619 117.814 339.619 120.763C339.619 123.713 338.566 126.2 336.459 128.222C334.436 130.161 331.866 131.13 328.747 131.13ZM337.47 139.474V209.51H319.771V139.474H337.47ZM371.138 194.972H402.364V209.51H351.038V195.224L381.631 154.012H351.164V139.474H401.985V153.759L371.138 194.972ZM506.24 121.269V135.555H482.726V209.51H465.027V135.555H441.513V121.269H506.24ZM528.129 131.13C525.011 131.13 522.398 130.161 520.291 128.222C518.269 126.2 517.257 123.713 517.257 120.763C517.257 117.814 518.269 115.37 520.291 113.431C522.398 111.408 525.011 110.397 528.129 110.397C531.248 110.397 533.818 111.408 535.841 113.431C537.948 115.37 539.001 117.814 539.001 120.763C539.001 123.713 537.948 126.2 535.841 128.222C533.818 130.161 531.248 131.13 528.129 131.13ZM536.852 139.474V209.51H519.154V139.474H536.852ZM641.315 138.462C649.912 138.462 656.823 141.117 662.048 146.427C667.358 151.652 670.012 158.984 670.012 168.424V209.51H652.314V170.826C652.314 165.347 650.923 161.176 648.142 158.31C645.361 155.36 641.568 153.885 636.764 153.885C631.96 153.885 628.125 155.36 625.26 158.31C622.479 161.176 621.088 165.347 621.088 170.826V209.51H603.389V170.826C603.389 165.347 601.999 161.176 599.217 158.31C596.436 155.36 592.644 153.885 587.84 153.885C582.952 153.885 579.075 155.36 576.209 158.31C573.428 161.176 572.037 165.347 572.037 170.826V209.51H554.339V139.474H572.037V147.944C574.313 144.994 577.221 142.676 580.76 140.991C584.384 139.305 588.345 138.462 592.644 138.462C598.122 138.462 603.01 139.642 607.308 142.002C611.607 144.277 614.936 147.564 617.295 151.863C619.571 147.817 622.858 144.572 627.156 142.128C631.539 139.684 636.258 138.462 641.315 138.462ZM751.913 172.975C751.913 175.503 751.745 177.779 751.408 179.801H700.208C700.629 184.858 702.399 188.819 705.517 191.685C708.636 194.55 712.47 195.983 717.022 195.983C723.595 195.983 728.273 193.16 731.054 187.513H750.143C748.121 194.255 744.244 199.818 738.513 204.2C732.782 208.499 725.744 210.648 717.401 210.648C710.658 210.648 704.59 209.173 699.196 206.223C693.887 203.189 689.715 198.933 686.681 193.455C683.731 187.976 682.256 181.655 682.256 174.492C682.256 167.244 683.731 160.881 686.681 155.402C689.631 149.924 693.76 145.71 699.07 142.76C704.38 139.811 710.49 138.336 717.401 138.336C724.059 138.336 730.001 139.769 735.226 142.634C740.536 145.5 744.623 149.587 747.489 154.897C750.438 160.122 751.913 166.148 751.913 172.975ZM733.582 167.918C733.498 163.367 731.855 159.743 728.652 157.046C725.449 154.265 721.53 152.874 716.895 152.874C712.513 152.874 708.804 154.222 705.77 156.919C702.82 159.532 701.008 163.198 700.334 167.918H733.582Z" fill="#0038FE" fill-opacity="0.22"/>
<path d="M202.424 225.059L200.419 226.733L201.202 227.671H202.424V225.059ZM189.023 209.004L191.028 207.331L189.979 206.073L188.39 206.471L189.023 209.004ZM154.89 204.58L156.168 202.302L154.89 204.58ZM138.455 188.524L136.202 189.844L136.209 189.856L138.455 188.524ZM138.455 142.002L140.702 143.333L140.709 143.321L138.455 142.002ZM154.89 125.82L153.612 123.543L154.89 125.82ZM200.401 125.82L199.111 128.091L199.123 128.098L200.401 125.82ZM216.709 142.002L214.443 143.301L214.453 143.317L214.462 143.333L216.709 142.002ZM217.72 186.628L215.403 185.424L215.397 185.436L217.72 186.628ZM204.194 202.304L202.688 200.17L200.301 201.855L202.242 204.039L204.194 202.304ZM224.421 225.059V227.671H230.236L226.372 223.324L224.421 225.059ZM154.005 180.686L156.332 179.501L154.005 180.686ZM163.486 191.053L162.136 193.288L162.163 193.304L162.191 193.32L163.486 191.053ZM191.678 191.053L192.994 193.308L193.011 193.298L193.028 193.288L191.678 191.053ZM201.159 180.686L203.486 181.872H203.486L201.159 180.686ZM201.159 149.714L198.833 150.899L198.837 150.908L198.842 150.917L201.159 149.714ZM191.678 139.474L190.362 141.729L191.678 139.474ZM163.486 139.474L162.191 137.206L162.181 137.212L162.171 137.218L163.486 139.474ZM154.005 149.714L156.323 150.917L156.327 150.908L156.332 150.899L154.005 149.714ZM204.429 223.386L191.028 207.331L187.018 210.678L200.419 226.733L204.429 223.386ZM188.39 206.471C184.892 207.345 181.312 207.783 177.645 207.783V213.006C181.733 213.006 185.738 212.517 189.657 211.538L188.39 206.471ZM177.645 207.783C169.814 207.783 162.671 205.95 156.168 202.302L153.612 206.857C160.93 210.962 168.958 213.006 177.645 213.006V207.783ZM156.168 202.302C149.658 198.65 144.514 193.625 140.702 187.193L136.209 189.856C140.488 197.077 146.3 202.755 153.612 206.857L156.168 202.302ZM140.709 187.205C136.918 180.728 134.999 173.394 134.999 165.137H129.776C129.776 174.241 131.903 182.499 136.202 189.844L140.709 187.205ZM134.999 165.137C134.999 156.968 136.915 149.724 140.702 143.333L136.209 140.671C131.905 147.934 129.776 156.112 129.776 165.137H134.999ZM140.709 143.321C144.523 136.806 149.666 131.745 156.168 128.098L153.612 123.543C146.292 127.649 140.479 133.376 136.202 140.683L140.709 143.321ZM156.168 128.098C162.671 124.449 169.814 122.616 177.645 122.616V117.394C168.958 117.394 160.93 119.437 153.612 123.543L156.168 128.098ZM177.645 122.616C185.566 122.616 192.703 124.452 199.111 128.091L201.691 123.549C194.446 119.435 186.412 117.394 177.645 117.394V122.616ZM199.123 128.098C205.62 131.742 210.716 136.797 214.443 143.301L218.975 140.703C214.78 133.385 209.004 127.652 201.679 123.543L199.123 128.098ZM214.462 143.333C218.249 149.724 220.166 156.968 220.166 165.137H225.389C225.389 156.112 223.26 147.934 218.956 140.671L214.462 143.333ZM220.166 165.137C220.166 172.586 218.567 179.333 215.403 185.424L220.038 187.832C223.616 180.944 225.389 173.363 225.389 165.137H220.166ZM215.397 185.436C212.297 191.476 208.065 196.375 202.688 200.17L205.7 204.437C211.784 200.142 216.57 194.59 220.044 187.82L215.397 185.436ZM202.242 204.039L222.469 226.794L226.372 223.324L206.145 200.569L202.242 204.039ZM224.421 222.448H202.424V227.671H224.421V222.448ZM147.98 165.137C147.98 171.376 149.185 176.978 151.678 181.872L156.332 179.501C154.274 175.461 153.203 170.697 153.203 165.137H147.98ZM151.678 181.872C154.161 186.745 157.648 190.576 162.136 193.288L164.837 188.817C161.234 186.641 158.4 183.561 156.332 179.501L151.678 181.872ZM162.191 193.32C166.76 195.931 171.935 197.204 177.645 197.204V191.981C172.736 191.981 168.473 190.894 164.782 188.785L162.191 193.32ZM177.645 197.204C183.354 197.204 188.498 195.931 192.994 193.308L190.362 188.797C186.767 190.894 182.556 191.981 177.645 191.981V197.204ZM193.028 193.288C197.517 190.576 201.004 186.745 203.486 181.872L198.833 179.501C196.764 183.561 193.93 186.641 190.328 188.817L193.028 193.288ZM203.486 181.872C205.979 176.978 207.184 171.376 207.184 165.137H201.961C201.961 170.697 200.891 175.461 198.833 179.501L203.486 181.872ZM207.184 165.137C207.184 158.899 205.98 153.33 203.477 148.51L198.842 150.917C200.89 154.862 201.961 159.575 201.961 165.137H207.184ZM203.486 148.528C201 143.648 197.503 139.848 192.994 137.218L190.362 141.729C193.944 143.819 196.768 146.846 198.833 150.899L203.486 148.528ZM192.994 137.218C188.498 134.595 183.354 133.322 177.645 133.322V138.545C182.556 138.545 186.767 139.632 190.362 141.729L192.994 137.218ZM177.645 133.322C171.935 133.322 166.76 134.595 162.191 137.206L164.782 141.741C168.473 139.632 172.736 138.545 177.645 138.545V133.322ZM162.171 137.218C157.662 139.848 154.164 143.648 151.678 148.528L156.332 150.899C158.397 146.846 161.22 143.819 164.802 141.729L162.171 137.218ZM151.687 148.51C149.185 153.33 147.98 158.899 147.98 165.137H153.203C153.203 159.575 154.274 154.862 156.323 150.917L151.687 148.51ZM302.309 139.474H304.92V136.862H302.309V139.474ZM302.309 209.51V212.121H304.92V209.51H302.309ZM284.484 209.51H281.872V212.121H284.484V209.51ZM284.484 200.661H287.095V192.826L282.394 199.094L284.484 200.661ZM275.508 207.866L276.609 210.234L276.621 210.229L276.633 210.223L275.508 207.866ZM249.086 206.982L247.81 209.26L247.828 209.27L247.845 209.279L249.086 206.982ZM239.099 196.742L236.781 197.944L236.794 197.97L236.808 197.995L239.099 196.742ZM235.559 139.474V136.862H232.948V139.474H235.559ZM253.258 139.474H255.87V136.862H253.258V139.474ZM257.43 190.926L255.505 192.691L255.517 192.704L255.53 192.718L257.43 190.926ZM280.312 190.926L282.212 192.718L282.224 192.704L282.237 192.691L280.312 190.926ZM284.484 139.474V136.862H281.872V139.474H284.484ZM299.697 139.474V209.51H304.92V139.474H299.697ZM302.309 206.898H284.484V212.121H302.309V206.898ZM287.095 209.51V200.661H281.872V209.51H287.095ZM282.394 199.094C280.393 201.763 277.743 203.906 274.383 205.51L276.633 210.223C280.689 208.287 284.024 205.626 286.573 202.227L282.394 199.094ZM274.407 205.499C271.153 207.012 267.571 207.783 263.624 207.783V213.006C268.274 213.006 272.615 212.092 276.609 210.234L274.407 205.499ZM263.624 207.783C258.517 207.783 254.108 206.725 250.327 204.684L247.845 209.279C252.492 211.789 257.776 213.006 263.624 213.006V207.783ZM250.362 204.703C246.6 202.596 243.612 199.549 241.39 195.488L236.808 197.995C239.474 202.868 243.145 206.647 247.81 209.26L250.362 204.703ZM241.417 195.539C239.288 191.432 238.171 186.468 238.171 180.56H232.948C232.948 187.125 234.191 192.949 236.781 197.944L241.417 195.539ZM238.171 180.56V139.474H232.948V180.56H238.171ZM235.559 142.085H253.258V136.862H235.559V142.085ZM250.647 139.474V178.031H255.87V139.474H250.647ZM250.647 178.031C250.647 184.014 252.147 189.027 255.505 192.691L259.355 189.162C257.151 186.757 255.87 183.174 255.87 178.031H250.647ZM255.53 192.718C258.895 196.287 263.429 197.962 268.808 197.962V192.739C264.579 192.739 261.527 191.465 259.33 189.135L255.53 192.718ZM268.808 197.962C274.255 197.962 278.837 196.297 282.212 192.718L278.412 189.135C276.224 191.455 273.136 192.739 268.808 192.739V197.962ZM282.237 192.691C285.595 189.027 287.095 184.014 287.095 178.031H281.872C281.872 183.174 280.591 186.757 278.387 189.162L282.237 192.691ZM287.095 178.031V139.474H281.872V178.031H287.095ZM284.484 142.085H302.309V136.862H284.484V142.085ZM320.909 128.222L319.063 130.069L319.101 130.107L319.141 130.144L320.909 128.222ZM320.909 113.431L322.716 115.317L322.718 115.315L320.909 113.431ZM336.459 113.431L334.612 115.278L334.651 115.316L334.691 115.353L336.459 113.431ZM336.459 128.222L338.266 130.108L338.267 130.106L336.459 128.222ZM337.47 139.474H340.082V136.862H337.47V139.474ZM337.47 209.51V212.121H340.082V209.51H337.47ZM319.771 209.51H317.16V212.121H319.771V209.51ZM319.771 139.474V136.862H317.16V139.474H319.771ZM328.747 128.518C326.22 128.518 324.257 127.754 322.677 126.3L319.141 130.144C321.775 132.567 325.037 133.741 328.747 133.741V128.518ZM322.756 126.376C321.24 124.86 320.487 123.045 320.487 120.763H315.264C315.264 124.382 316.533 127.54 319.063 130.069L322.756 126.376ZM320.487 120.763C320.487 118.483 321.237 116.734 322.716 115.317L319.102 111.546C316.536 114.005 315.264 117.144 315.264 120.763H320.487ZM322.718 115.315C324.303 113.793 326.253 113.009 328.747 113.009V107.786C325.005 107.786 321.729 109.024 319.101 111.547L322.718 115.315ZM328.747 113.009C331.242 113.009 333.126 113.791 334.612 115.278L338.305 111.585C335.746 109.026 332.489 107.786 328.747 107.786V113.009ZM334.691 115.353C336.242 116.78 337.008 118.519 337.008 120.763H342.231C342.231 117.108 340.89 113.959 338.227 111.509L334.691 115.353ZM337.008 120.763C337.008 123.01 336.239 124.814 334.65 126.338L338.267 130.106C340.893 127.585 342.231 124.416 342.231 120.763H337.008ZM334.652 126.337C333.172 127.755 331.275 128.518 328.747 128.518V133.741C332.456 133.741 335.7 132.566 338.266 130.108L334.652 126.337ZM334.859 139.474V209.51H340.082V139.474H334.859ZM337.47 206.898H319.771V212.121H337.47V206.898ZM322.383 209.51V139.474H317.16V209.51H322.383ZM319.771 142.085H337.47V136.862H319.771V142.085ZM371.138 194.972L369.047 193.407L365.922 197.583H371.138V194.972ZM402.364 194.972H404.975V192.36H402.364V194.972ZM402.364 209.51V212.121H404.975V209.51H402.364ZM351.038 209.51H348.426V212.121H351.038V209.51ZM351.038 195.225L348.941 193.668L348.426 194.361V195.225H351.038ZM381.631 154.012L383.728 155.568L386.822 151.4H381.631V154.012ZM351.164 154.012H348.552V156.623H351.164V154.012ZM351.164 139.474V136.862H348.552V139.474H351.164ZM401.984 139.474H404.596V136.862H401.984V139.474ZM401.984 153.759L404.075 155.324L404.596 154.628V153.759H401.984ZM371.138 197.583H402.364V192.36H371.138V197.583ZM399.752 194.972V209.51H404.975V194.972H399.752ZM402.364 206.898H351.038V212.121H402.364V206.898ZM353.649 209.51V195.225H348.426V209.51H353.649ZM353.134 196.781L383.728 155.568L379.534 152.455L348.941 193.668L353.134 196.781ZM381.631 151.4H351.164V156.623H381.631V151.4ZM353.775 154.012V139.474H348.552V154.012H353.775ZM351.164 142.085H401.984V136.862H351.164V142.085ZM399.373 139.474V153.759H404.596V139.474H399.373ZM399.894 152.194L369.047 193.407L373.229 196.536L404.075 155.324L399.894 152.194ZM506.24 121.269H508.851V118.658H506.24V121.269ZM506.24 135.555V138.166H508.851V135.555H506.24ZM482.726 135.555V132.943H480.114V135.555H482.726ZM482.726 209.51V212.121H485.337V209.51H482.726ZM465.027 209.51H462.416V212.121H465.027V209.51ZM465.027 135.555H467.639V132.943H465.027V135.555ZM441.513 135.555H438.902V138.166H441.513V135.555ZM441.513 121.269V118.658H438.902V121.269H441.513ZM503.628 121.269V135.555H508.851V121.269H503.628ZM506.24 132.943H482.726V138.166H506.24V132.943ZM480.114 135.555V209.51H485.337V135.555H480.114ZM482.726 206.898H465.027V212.121H482.726V206.898ZM467.639 209.51V135.555H462.416V209.51H467.639ZM465.027 132.943H441.513V138.166H465.027V132.943ZM444.125 135.555V121.269H438.902V135.555H444.125ZM441.513 123.881H506.24V118.658H441.513V123.881ZM520.291 128.222L518.445 130.069L518.483 130.107L518.523 130.144L520.291 128.222ZM520.291 113.431L522.098 115.317L522.1 115.315L520.291 113.431ZM535.841 113.431L533.994 115.278L534.033 115.316L534.073 115.353L535.841 113.431ZM535.841 128.222L537.648 130.108L537.649 130.106L535.841 128.222ZM536.852 139.474H539.464V136.862H536.852V139.474ZM536.852 209.51V212.121H539.464V209.51H536.852ZM519.154 209.51H516.542V212.121H519.154V209.51ZM519.154 139.474V136.862H516.542V139.474H519.154ZM528.129 128.518C525.602 128.518 523.64 127.754 522.059 126.3L518.523 130.144C521.157 132.567 524.419 133.741 528.129 133.741V128.518ZM522.138 126.376C520.622 124.86 519.869 123.045 519.869 120.763H514.646C514.646 124.382 515.915 127.54 518.445 130.069L522.138 126.376ZM519.869 120.763C519.869 118.483 520.619 116.734 522.098 115.317L518.484 111.546C515.918 114.005 514.646 117.144 514.646 120.763H519.869ZM522.1 115.315C523.685 113.793 525.635 113.009 528.129 113.009V107.786C524.387 107.786 521.111 109.024 518.483 111.547L522.1 115.315ZM528.129 113.009C530.624 113.009 532.508 113.791 533.994 115.278L537.687 111.585C535.128 109.026 531.871 107.786 528.129 107.786V113.009ZM534.073 115.353C535.624 116.78 536.39 118.519 536.39 120.763H541.613C541.613 117.108 540.272 113.959 537.609 111.509L534.073 115.353ZM536.39 120.763C536.39 123.01 535.621 124.814 534.032 126.338L537.649 130.106C540.275 127.585 541.613 124.416 541.613 120.763H536.39ZM534.034 126.337C532.554 127.755 530.657 128.518 528.129 128.518V133.741C531.838 133.741 535.082 132.566 537.648 130.108L534.034 126.337ZM534.241 139.474V209.51H539.464V139.474H534.241ZM536.852 206.898H519.154V212.121H536.852V206.898ZM521.765 209.51V139.474H516.542V209.51H521.765ZM519.154 142.085H536.852V136.862H519.154V142.085ZM662.048 146.427L660.187 148.258L660.201 148.273L660.216 148.288L662.048 146.427ZM670.012 209.51V212.121H672.624V209.51H670.012ZM652.314 209.51H649.702V212.121H652.314V209.51ZM648.142 158.31L646.242 160.102L646.255 160.115L646.268 160.129L648.142 158.31ZM625.26 158.31L623.387 156.49L623.386 156.491L625.26 158.31ZM621.088 209.51V212.121H623.699V209.51H621.088ZM603.389 209.51H600.778V212.121H603.389V209.51ZM599.217 158.31L597.317 160.102L597.33 160.115L597.344 160.129L599.217 158.31ZM576.209 158.31L574.336 156.49L574.335 156.491L576.209 158.31ZM572.037 209.51V212.121H574.649V209.51H572.037ZM554.339 209.51H551.727V212.121H554.339V209.51ZM554.339 139.474V136.862H551.727V139.474H554.339ZM572.037 139.474H574.649V136.862H572.037V139.474ZM572.037 147.944H569.426V155.604L574.105 149.539L572.037 147.944ZM580.76 140.991L579.659 138.623L579.648 138.628L579.637 138.633L580.76 140.991ZM607.308 142.002L606.052 144.291L606.069 144.301L606.086 144.31L607.308 142.002ZM617.295 151.863L615.006 153.119L617.268 157.239L619.572 153.143L617.295 151.863ZM627.156 142.128L625.884 139.848L625.875 139.853L625.865 139.858L627.156 142.128ZM641.315 141.074C649.329 141.074 655.529 143.525 660.187 148.258L663.909 144.595C658.117 138.709 650.494 135.851 641.315 135.851V141.074ZM660.216 148.288C664.902 152.9 667.401 159.487 667.401 168.424H672.624C672.624 158.481 669.813 150.404 663.88 144.565L660.216 148.288ZM667.401 168.424V209.51H672.624V168.424H667.401ZM670.012 206.898H652.314V212.121H670.012V206.898ZM654.925 209.51V170.826H649.702V209.51H654.925ZM654.925 170.826C654.925 164.925 653.423 160.002 650.016 156.491L646.268 160.129C648.423 162.349 649.702 165.769 649.702 170.826H654.925ZM650.042 156.519C646.676 152.949 642.143 151.274 636.764 151.274V156.497C640.993 156.497 644.045 157.772 646.242 160.102L650.042 156.519ZM636.764 151.274C631.383 151.274 626.827 152.949 623.387 156.49L627.133 160.13C629.424 157.772 632.537 156.497 636.764 156.497V151.274ZM623.386 156.491C619.979 160.002 618.477 164.925 618.477 170.826H623.699C623.699 165.769 624.979 162.349 627.134 160.129L623.386 156.491ZM618.477 170.826V209.51H623.699V170.826H618.477ZM621.088 206.898H603.389V212.121H621.088V206.898ZM606.001 209.51V170.826H600.778V209.51H606.001ZM606.001 170.826C606.001 164.925 604.499 160.002 601.091 156.491L597.344 160.129C599.499 162.349 600.778 165.769 600.778 170.826H606.001ZM601.118 156.519C597.752 152.949 593.219 151.274 587.84 151.274V156.497C592.069 156.497 595.121 157.772 597.317 160.102L601.118 156.519ZM587.84 151.274C582.389 151.274 577.785 152.94 574.336 156.49L578.082 160.13C580.364 157.781 583.514 156.497 587.84 156.497V151.274ZM574.335 156.491C570.928 160.002 569.426 164.925 569.426 170.826H574.649C574.649 165.769 575.928 162.349 578.083 160.129L574.335 156.491ZM569.426 170.826V209.51H574.649V170.826H569.426ZM572.037 206.898H554.339V212.121H572.037V206.898ZM556.95 209.51V139.474H551.727V209.51H556.95ZM554.339 142.085H572.037V136.862H554.339V142.085ZM569.426 139.474V147.944H574.649V139.474H569.426ZM574.105 149.539C576.117 146.931 578.694 144.867 581.883 143.348L579.637 138.633C575.747 140.485 572.509 143.057 569.97 146.349L574.105 149.539ZM581.862 143.358C585.115 141.845 588.697 141.074 592.644 141.074V135.851C587.994 135.851 583.653 136.765 579.659 138.623L581.862 143.358ZM592.644 141.074C597.735 141.074 602.182 142.167 606.052 144.291L608.565 139.713C603.838 137.118 598.509 135.851 592.644 135.851V141.074ZM606.086 144.31C609.93 146.345 612.89 149.264 615.006 153.119L619.585 150.606C616.981 145.864 613.283 142.21 608.53 139.694L606.086 144.31ZM619.572 153.143C621.599 149.538 624.533 146.624 628.447 144.398L625.865 139.858C621.183 142.521 617.543 146.096 615.019 150.582L619.572 153.143ZM628.428 144.409C632.419 142.184 636.7 141.074 641.315 141.074V135.851C635.817 135.851 630.659 137.185 625.884 139.848L628.428 144.409ZM751.408 179.801V182.413H753.62L753.984 180.231L751.408 179.801ZM700.208 179.801V177.19H697.37L697.605 180.018L700.208 179.801ZM705.517 191.685L703.75 193.608V193.608L705.517 191.685ZM731.054 187.513V184.901H729.429L728.711 186.359L731.054 187.513ZM750.143 187.513L752.645 188.263L753.653 184.901H750.143V187.513ZM738.513 204.2L740.08 206.289L740.089 206.282L740.099 206.275L738.513 204.2ZM699.196 206.223L697.901 208.49L697.922 208.503L697.943 208.514L699.196 206.223ZM686.681 193.455L684.382 194.693L684.389 194.706L684.396 194.72L686.681 193.455ZM686.681 155.402L684.382 154.164L686.681 155.402ZM699.07 142.76L700.338 145.043L699.07 142.76ZM735.226 142.634L733.97 144.924L733.978 144.928L733.986 144.932L735.226 142.634ZM747.489 154.897L745.19 156.137L745.202 156.159L745.214 156.181L747.489 154.897ZM733.582 167.918V170.529H736.243L736.193 167.87L733.582 167.918ZM728.652 157.046L726.94 159.018L726.955 159.031L726.97 159.043L728.652 157.046ZM705.77 156.919L707.502 158.874L707.505 158.871L705.77 156.919ZM700.334 167.918L697.749 167.549L697.323 170.529H700.334V167.918ZM749.302 172.975C749.302 175.391 749.14 177.519 748.832 179.372L753.984 180.231C754.349 178.038 754.525 175.615 754.525 172.975H749.302ZM751.408 177.19H700.208V182.413H751.408V177.19ZM697.605 180.018C698.07 185.591 700.057 190.214 703.75 193.608L707.284 189.762C704.741 187.425 703.189 184.125 702.81 179.584L697.605 180.018ZM703.75 193.608C707.388 196.951 711.869 198.594 717.022 198.594V193.372C713.072 193.372 709.883 192.15 707.284 189.762L703.75 193.608ZM717.022 198.594C720.687 198.594 723.988 197.804 726.81 196.101C729.638 194.394 731.82 191.869 733.397 188.667L728.711 186.359C727.507 188.804 725.959 190.514 724.11 191.63C722.255 192.75 719.93 193.372 717.022 193.372V198.594ZM731.054 190.124H750.143V184.901H731.054V190.124ZM747.642 186.763C745.781 192.964 742.232 198.068 736.926 202.126L740.099 206.275C746.255 201.567 750.46 195.546 752.645 188.263L747.642 186.763ZM736.946 202.111C731.739 206.017 725.276 208.036 717.401 208.036V213.259C726.213 213.259 733.825 210.98 740.08 206.289L736.946 202.111ZM717.401 208.036C711.053 208.036 705.423 206.652 700.449 203.932L697.943 208.514C703.758 211.694 710.264 213.259 717.401 213.259V208.036ZM700.492 203.956C695.608 201.165 691.774 197.26 688.965 192.189L684.396 194.72C687.656 200.606 692.166 205.213 697.901 208.49L700.492 203.956ZM688.98 192.217C686.264 187.173 684.868 181.289 684.868 174.492H679.645C679.645 182.022 681.198 188.78 684.382 194.693L688.98 192.217ZM684.868 174.492C684.868 167.604 686.267 161.68 688.98 156.641L684.382 154.164C681.195 160.081 679.645 166.883 679.645 174.492H684.868ZM688.98 156.641C691.699 151.591 695.476 147.744 700.338 145.043L697.802 140.478C692.044 143.676 687.562 148.258 684.382 154.164L688.98 156.641ZM700.338 145.043C705.209 142.337 710.872 140.947 717.401 140.947V135.724C710.108 135.724 703.55 137.284 697.802 140.478L700.338 145.043ZM717.401 140.947C723.672 140.947 729.173 142.293 733.97 144.924L736.482 140.344C730.828 137.244 724.445 135.724 717.401 135.724V140.947ZM733.986 144.932C738.847 147.556 742.567 151.276 745.19 156.137L749.787 153.656C746.679 147.899 742.224 143.443 736.466 140.336L733.986 144.932ZM745.214 156.181C747.914 160.963 749.302 166.535 749.302 172.975H754.525C754.525 165.761 752.963 159.281 749.763 153.613L745.214 156.181ZM736.193 167.87C736.097 162.639 734.167 158.276 730.334 155.048L726.97 159.043C729.542 161.209 730.9 164.094 730.971 167.966L736.193 167.87ZM730.364 155.074C726.641 151.841 722.097 150.263 716.895 150.263V155.485C720.964 155.485 724.258 156.688 726.94 159.018L730.364 155.074ZM716.895 150.263C711.928 150.263 707.587 151.81 704.035 154.968L707.505 158.871C710.021 156.635 713.097 155.485 716.895 155.485V150.263ZM704.039 154.965C700.533 158.069 698.492 162.35 697.749 167.549L702.919 168.287C703.525 164.047 705.108 160.995 707.502 158.874L704.039 154.965ZM700.334 170.529H733.582V165.306H700.334V170.529Z" fill="white" mask="url(#path-8-outside-1_4_134)"/>
</svg>
