<svg width="36" height="30" viewBox="0 0 36 30" fill="none" xmlns="http://www.w3.org/2000/svg">
<path d="M13.4394 3.44092L7.87875 9.00029H1.5C0.67125 9.00029 0 9.67154 0 10.5003V19.5003C0 20.3284 0.67125 21.0003 1.5 21.0003H7.87875L13.4394 26.5597C14.3787 27.499 16 26.839 16 25.499V4.50154C16 3.16029 14.3775 2.50279 13.4394 3.44092ZM28.0219 0.248415C27.3237 -0.20971 26.3856 -0.0165853 25.9275 0.68279C25.4688 1.38091 25.6637 2.31904 26.3619 2.77716C30.5037 5.49529 32.9756 10.0647 32.9756 15.0009C32.9756 19.9372 30.5037 24.5065 26.3619 27.2247C25.6637 27.6822 25.4688 28.6209 25.9275 29.3184C26.3675 29.9878 27.2981 30.2284 28.0219 29.7528C33.0169 26.474 36 20.9584 36 15.0003C36 9.04217 33.0169 3.52716 28.0219 0.248415ZM30 15.0003C30 11.0297 27.9963 7.37904 24.6394 5.23529C23.94 4.78904 23.0125 4.99654 22.5694 5.70154C22.1262 6.40654 22.3331 7.33967 23.0325 7.78654C25.5169 9.37342 27 12.0697 27 15.0003C27 17.9309 25.5169 20.6272 23.0325 22.214C22.3331 22.6603 22.1262 23.5934 22.5694 24.299C22.9762 24.9465 23.8894 25.2453 24.6394 24.7653C27.9963 22.6215 30 18.9715 30 15.0003ZM21.1394 10.1959C20.4156 9.80029 19.5025 10.0609 19.1012 10.7865C18.7019 11.5122 18.9663 12.424 19.6919 12.8247C20.4988 13.2678 21 14.1022 21 15.0003C21 15.899 20.4987 16.7328 19.6925 17.1759C18.9669 17.5765 18.7025 18.4884 19.1019 19.214C19.5037 19.9428 20.4175 20.2015 21.14 19.8047C22.9044 18.8328 24.0006 16.9922 24.0006 14.9997C24.0006 13.0072 22.9044 11.1672 21.1394 10.1959Z" fill="black"/>
</svg>
