<svg width="36" height="36" viewBox="0 0 36 36" fill="none" xmlns="http://www.w3.org/2000/svg">
<path d="M17.6908 13.4782C16.8577 13.4785 16.0434 13.7258 15.3508 14.1889C14.6582 14.652 14.1186 15.31 13.8 16.0798C13.4814 16.8496 13.3982 17.6965 13.5609 18.5136C13.7236 19.3306 14.1249 20.0811 14.7141 20.6701C15.3034 21.2591 16.054 21.6601 16.8711 21.8226C17.6882 21.985 18.5352 21.9015 19.3048 21.5826C20.0745 21.2637 20.7323 20.7237 21.1951 20.031C21.6579 19.3383 21.905 18.5239 21.905 17.6908C21.9041 16.5735 21.4598 15.5023 20.6696 14.7124C19.8795 13.9225 18.8081 13.4786 17.6908 13.4782ZM27.54 10.2401C27.3255 9.69663 27.0017 9.20301 26.5885 8.78987C26.1754 8.37673 25.6818 8.05289 25.1383 7.83844C23.4798 7.18372 19.5309 7.33062 17.6908 7.33062C15.8506 7.33062 11.9057 7.17819 10.2425 7.83844C9.699 8.05289 9.20538 8.37673 8.79224 8.78987C8.3791 9.20301 8.05526 9.69663 7.84081 10.2401C7.18688 11.8986 7.33298 15.8514 7.33298 17.69C7.33298 19.5286 7.18688 23.4766 7.84396 25.1406C8.05842 25.6841 8.38226 26.1778 8.7954 26.5909C9.20854 27.004 9.70216 27.3279 10.2456 27.5423C11.9042 28.197 15.853 28.0501 17.6939 28.0501C19.5349 28.0501 23.4782 28.2026 25.1414 27.5423C25.6849 27.3279 26.1785 27.004 26.5917 26.5909C27.0048 26.1778 27.3287 25.6841 27.5431 25.1406C28.2026 23.4821 28.0509 19.5294 28.0509 17.6908C28.0509 15.8522 28.2026 11.9049 27.5431 10.2409L27.54 10.2401ZM17.6908 24.1669C16.4099 24.1669 15.1578 23.7871 14.0929 23.0754C13.0279 22.3638 12.1978 21.3524 11.7077 20.1691C11.2175 18.9857 11.0892 17.6836 11.3391 16.4274C11.589 15.1711 12.2058 14.0172 13.1115 13.1115C14.0172 12.2058 15.1711 11.589 16.4274 11.3391C17.6836 11.0892 18.9857 11.2175 20.1691 11.7077C21.3524 12.1978 22.3638 13.0279 23.0754 14.0929C23.7871 15.1578 24.1669 16.4099 24.1669 17.6908C24.1679 18.5415 24.0011 19.3841 23.676 20.1703C23.3509 20.9565 22.8739 21.6708 22.2724 22.2724C21.6708 22.8739 20.9565 23.3509 20.1703 23.676C19.3841 24.0011 18.5415 24.1679 17.6908 24.1669ZM24.4338 12.4546C24.1348 12.4548 23.8425 12.3663 23.5938 12.2003C23.3451 12.0343 23.1512 11.7982 23.0367 11.522C22.9222 11.2458 22.8921 10.9419 22.9504 10.6486C23.0086 10.3553 23.1525 10.0859 23.3639 9.87442C23.5752 9.66293 23.8446 9.51889 24.1378 9.4605C24.4311 9.40211 24.735 9.432 25.0113 9.54638C25.2876 9.66077 25.5237 9.85452 25.6898 10.1031C25.856 10.3517 25.9446 10.644 25.9446 10.943C25.9455 11.1416 25.9071 11.3383 25.8317 11.522C25.7563 11.7057 25.6454 11.8727 25.5053 12.0135C25.3653 12.1542 25.1988 12.2659 25.0154 12.3421C24.8321 12.4184 24.6355 12.4577 24.437 12.4578L24.4338 12.4546ZM31.5907 0H3.79088C2.78548 0 1.82125 0.399395 1.11032 1.11032C0.399395 1.82125 0 2.78548 0 3.79088L0 31.5907C0 32.5961 0.399395 33.5603 1.11032 34.2712C1.82125 34.9822 2.78548 35.3816 3.79088 35.3816H31.5907C32.5961 35.3816 33.5603 34.9822 34.2712 34.2712C34.9822 33.5603 35.3816 32.5961 35.3816 31.5907V3.79088C35.3816 2.78548 34.9822 1.82125 34.2712 1.11032C33.5603 0.399395 32.5961 0 31.5907 0ZM30.2386 22.9032C30.1367 24.9274 29.6747 26.721 28.197 28.1947C26.7194 29.6684 24.9274 30.1399 22.9056 30.2362C20.8198 30.3539 14.5665 30.3539 12.4807 30.2362C10.4565 30.1343 8.66927 29.6715 7.18925 28.1947C5.70922 26.7178 5.24405 24.9235 5.1477 22.9032C5.03003 20.8167 5.03003 14.5625 5.1477 12.4783C5.24958 10.4541 5.70607 8.66058 7.18925 7.18688C8.67243 5.71317 10.4644 5.24721 12.4807 5.15086C14.5665 5.03318 20.8198 5.03318 22.9056 5.15086C24.9298 5.25274 26.7226 5.71554 28.197 7.19241C29.6715 8.66927 30.1422 10.4636 30.2386 12.4878C30.3563 14.5665 30.3563 20.8151 30.2386 22.9032Z" fill="#535353"/>
</svg>
