<svg width="36" height="36" viewBox="0 0 36 36" fill="none" xmlns="http://www.w3.org/2000/svg">
<path d="M32.8543 0H2.51936C1.12937 0 0 1.14516 0 2.55095V32.8306C0 34.2364 1.12937 35.3816 2.51936 35.3816H32.8543C34.2443 35.3816 35.3816 34.2364 35.3816 32.8306V2.55095C35.3816 1.14516 34.2443 0 32.8543 0ZM10.6934 30.327H5.44939V13.4418H10.7013V30.327H10.6934ZM8.07142 11.1357C6.38921 11.1357 5.03081 9.76942 5.03081 8.09511C5.03081 6.4208 6.38921 5.05451 8.07142 5.05451C9.74572 5.05451 11.112 6.4208 11.112 8.09511C11.112 9.77731 9.75362 11.1357 8.07142 11.1357ZM30.3507 30.327H25.1067V22.1135C25.1067 20.1549 25.0672 17.6355 22.382 17.6355C19.6494 17.6355 19.2308 19.7679 19.2308 21.9713V30.327H13.9868V13.4418H19.0176V15.748H19.0887C19.7916 14.4211 21.5054 13.0233 24.0563 13.0233C29.3635 13.0233 30.3507 16.5219 30.3507 21.071V30.327Z" fill="#535353"/>
</svg>
