<svg width="36" height="36" viewBox="0 0 36 36" fill="none" xmlns="http://www.w3.org/2000/svg">
<path d="M31.5907 0H3.79088C1.698 0 0 1.698 0 3.79088V31.5907C0 33.6836 1.698 35.3816 3.79088 35.3816H31.5907C33.6836 35.3816 35.3816 33.6836 35.3816 31.5907V3.79088C35.3816 1.698 33.6836 0 31.5907 0ZM27.7287 12.5415C27.7445 12.7626 27.7445 12.9917 27.7445 13.2128C27.7445 20.0601 22.532 27.9498 13.0075 27.9498C10.0695 27.9498 7.34483 27.0969 5.05451 25.6279C5.47308 25.6753 5.87587 25.6911 6.30234 25.6911C8.72692 25.6911 10.9541 24.8698 12.731 23.4798C10.4565 23.4324 8.54528 21.9397 7.88977 19.8863C8.68744 20.0048 9.40612 20.0048 10.2275 19.7916C7.85818 19.3098 6.0812 17.2248 6.0812 14.7055V14.6423C6.7683 15.0293 7.57386 15.2662 8.41891 15.2978C7.70846 14.8252 7.12605 14.1841 6.72366 13.4317C6.32126 12.6793 6.1114 11.8389 6.1128 10.9857C6.1128 10.0221 6.36552 9.1376 6.81569 8.37153C9.36663 11.5148 13.197 13.5682 17.4933 13.7893C16.7589 10.2749 19.3888 7.42381 22.5478 7.42381C24.0405 7.42381 25.3831 8.04772 26.3308 9.05863C27.4997 8.83749 28.6211 8.40312 29.6163 7.81079C29.2293 9.01124 28.4158 10.0221 27.3417 10.6619C28.3842 10.5513 29.3951 10.2591 30.327 9.85629C29.6242 10.8909 28.7396 11.807 27.7287 12.5415Z" fill="#535353"/>
</svg>
