<svg width="39" height="29" viewBox="0 0 39 29" fill="none" xmlns="http://www.w3.org/2000/svg">
<path d="M16.2394 0.532113L9.52025 7.24975H1.81252C0.811101 7.24975 0 8.06086 0 9.06227V19.9374C0 20.938 0.811101 21.7499 1.81252 21.7499H9.52025L16.2394 28.4675C17.3745 29.6026 19.3335 28.8051 19.3335 27.1859V1.81371C19.3335 0.193021 17.373 -0.601465 16.2394 0.532113ZM34.8638 14.4998L38.3106 11.053C38.7864 10.5772 38.7864 9.8054 38.3106 9.32962L36.5872 7.60622C36.1114 7.13043 35.3396 7.13043 34.8638 7.60622L31.417 11.053L27.9702 7.60622C27.4944 7.13043 26.7225 7.13043 26.2468 7.60622L24.5234 9.32962C24.0476 9.8054 24.0476 10.5772 24.5234 11.053L27.9702 14.4998L24.5241 17.9459C24.0483 18.4217 24.0483 19.1935 24.5241 19.6693L26.2475 21.3927C26.7233 21.8685 27.4951 21.8685 27.9709 21.3927L31.417 17.9466L34.8638 21.3934C35.3396 21.8692 36.1114 21.8692 36.5872 21.3934L38.3106 19.67C38.7864 19.1942 38.7864 18.4224 38.3106 17.9466L34.8638 14.4998Z" fill="black"/>
</svg>
